<svg width="35" height="32" viewBox="0 0 35 32" fill="none" xmlns="http://www.w3.org/2000/svg">
<g clip-path="url(#clip0)">
<path d="M11.8227 5.00701C12.28 4.56301 13.0411 4.56301 13.5145 5.00701C13.9718 5.43601 13.9718 6.15001 13.5145 6.57801L4.93605 14.625H33.2436C33.9035 14.626 34.428 15.118 34.428 15.737C34.428 16.356 33.9035 16.864 33.2436 16.864H4.93605L13.5145 24.896C13.9718 25.34 13.9718 26.055 13.5145 26.483C13.0411 26.927 12.2789 26.927 11.8227 26.483L1.21344 16.531C0.740124 16.102 0.740124 15.388 1.21344 14.96L11.8227 5.00701Z" fill="white"/>
</g>
<defs>
<clipPath id="clip0">
<rect width="33.5695" height="31.49" fill="white" transform="matrix(-1 0 0 1 34.428 0)"/>
</clipPath>
</defs>
</svg>
