<svg width="13" height="11" viewBox="0 0 13 11" fill="none" xmlns="http://www.w3.org/2000/svg">
<g clip-path="url(#clip0)">
<path d="M4.64079 3.58963L4.38576 3.62451L1.14101 4.06825L1.14067 4.0683C1.03977 4.08203 0.990501 4.13904 0.972791 4.19024C0.963418 4.21733 0.962776 4.24296 0.967985 4.26471C0.972701 4.2844 0.984499 4.31117 1.01736 4.34118L1.01751 4.34131L3.36501 6.48714L3.56937 6.67394L3.51948 6.94628L2.96432 9.97715C2.96431 9.97721 2.9643 9.97726 2.96429 9.97731L4.64079 3.58963ZM4.64079 3.58963L4.76057 3.3618M4.64079 3.58963L4.76057 3.3618M4.76057 3.3618L6.21073 0.603669C6.24242 0.543451 6.30895 0.4994 6.40496 0.499696C6.50204 0.499995 6.56978 0.54559 6.60086 0.604134C6.60091 0.60423 6.60096 0.604326 6.60101 0.604421L8.05077 3.3618L8.17056 3.58963L8.42558 3.62451L11.6703 4.06825L11.6707 4.0683C11.7716 4.08203 11.8208 4.13904 11.8386 4.19024C11.8479 4.21733 11.8486 4.24296 11.8434 4.26471C11.8386 4.2844 11.8268 4.31117 11.794 4.34118L11.7938 4.34131L9.44633 6.48714L9.24198 6.67394M4.76057 3.3618L9.24198 6.67394M9.24198 6.67394L9.29186 6.94628M9.24198 6.67394L9.29186 6.94628M9.29186 6.94628L9.84702 9.97715L9.29186 6.94628Z" fill="white" stroke="black"/>
</g>
<defs>
<clipPath id="clip0">
<rect width="12.7925" height="10.6667" fill="white" transform="translate(0.00946045)"/>
</clipPath>
</defs>
</svg>
